<svg width="25" height="26" fill="none" xmlns="http://www.w3.org/2000/svg"><path d="M17.274 14.758c-.506-.5-1.137-.5-1.64 0-.383.38-.767.76-1.144 1.147-.103.107-.19.13-.316.058-.248-.135-.512-.245-.75-.393-1.112-.7-2.044-1.598-2.869-2.61-.41-.503-.773-1.041-1.028-1.647-.051-.123-.042-.203.058-.303.384-.37.757-.75 1.134-1.131.526-.529.526-1.147-.003-1.68-.3-.302-.6-.599-.899-.901-.31-.31-.615-.622-.928-.929-.506-.493-1.138-.493-1.64.004-.387.38-.758.77-1.15 1.144a1.867 1.867 0 00-.587 1.26c-.062.802.135 1.56.412 2.298.567 1.527 1.431 2.884 2.478 4.128a15.336 15.336 0 005.08 3.973c.889.432 1.81.764 2.813.819.69.038 1.289-.136 1.769-.674.329-.367.7-.702 1.047-1.054.516-.522.52-1.153.007-1.669a492.016 492.016 0 00-1.844-1.84z" fill="#929AA2"/></svg>