<svg width="50" height="50" fill="none" xmlns="http://www.w3.org/2000/svg"><circle cx="25" cy="25" r="25" fill="#842231"/><g clip-path="url(#clip0_111_220)"><path d="M23.033 32.925l-7.468-7.467h19.977a.458.458 0 000-.917H15.565l7.468-7.467a.458.458 0 00-.648-.648l-8.25 8.25a.458.458 0 000 .649l8.25 8.25a.458.458 0 00.648-.648v-.002z" fill="#FFC107"/><path d="M14 25a.46.46 0 01.134-.325l8.25-8.25a.458.458 0 01.648.648L15.106 25l7.926 7.925a.458.458 0 01-.648.648l-8.25-8.25A.458.458 0 0114 25z" fill="#fff"/><path d="M14 25c0-.254.205-.459.458-.459h21.084a.458.458 0 010 .917H14.458A.458.458 0 0114 25z" fill="#fff"/></g><defs><clipPath id="clip0_111_220"><path fill="#fff" transform="rotate(90 11 25)" d="M0 0h22v22H0z"/></clipPath></defs></svg>