<svg width="50" height="50" fill="none" xmlns="http://www.w3.org/2000/svg"><circle cx="25" cy="25" r="25" fill="#842231"/><g clip-path="url(#clip0_111_214)"><path d="M26.967 17.075l7.468 7.467H14.458a.458.458 0 000 .917h19.977l-7.468 7.467a.458.458 0 00.648.648l8.25-8.25a.458.458 0 00.001-.648l-8.25-8.25a.458.458 0 00-.649.647v.002z" fill="#FFC107"/><path d="M36 25a.458.458 0 01-.134.325l-8.25 8.25a.458.458 0 01-.648-.648L34.894 25l-7.926-7.925a.458.458 0 01.648-.648l8.25 8.25A.458.458 0 0136 25z" fill="#fff"/><path d="M36 25a.458.458 0 01-.458.459H14.458a.458.458 0 010-.917h21.084c.253 0 .458.205.458.458z" fill="#fff"/></g><defs><clipPath id="clip0_111_214"><path fill="#fff" transform="rotate(-90 25 11)" d="M0 0h22v22H0z"/></clipPath></defs></svg>